<svg xmlns="http://www.w3.org/2000/svg" width="12" height="12" viewBox="0 0 12 12">
  <defs>
    <style>
      .cls-1 {
        fill: #fff;
      }
    </style>
  </defs>
  <path id="Icon_awesome-rss" data-name="Icon awesome-rss" class="cls-1" d="M3.431,12.535a1.715,1.715,0,1,1-1.715-1.715A1.715,1.715,0,0,1,3.431,12.535ZM8.136,13.8A8.145,8.145,0,0,0,.45,6.114.428.428,0,0,0,0,6.542V7.83a.429.429,0,0,0,.4.429,6,6,0,0,1,5.592,5.592.429.429,0,0,0,.429.4H7.707a.428.428,0,0,0,.428-.45ZM12,13.808A12.008,12.008,0,0,0,.442,2.25.428.428,0,0,0,0,2.679V3.967A.43.43,0,0,0,.414,4.4a9.859,9.859,0,0,1,9.441,9.441.43.43,0,0,0,.429.414h1.288A.428.428,0,0,0,12,13.808Z" transform="translate(0 -2.25)"/>
</svg>
